<?xml version="1.0" encoding="UTF-8" standalone="no" ?>
<!DOCTYPE svg PUBLIC "-//W3C//DTD SVG 1.1//EN" "http://www.w3.org/Graphics/SVG/1.1/DTD/svg11.dtd">
<svg xmlns="http://www.w3.org/2000/svg" xmlns:xlink="http://www.w3.org/1999/xlink" version="1.1" width="1080" height="1080" viewBox="0 0 1080 1080" xml:space="preserve">
<desc>Created with Fabric.js 5.2.4</desc>
<defs>
</defs>
<rect x="0" y="0" width="100%" height="100%" fill="transparent"></rect>
<g transform="matrix(1 0 0 1 540 540)" id="4e9365ea-7209-4be1-82f5-19040eaa5c7e"  >
</g>
<g transform="matrix(1 0 0 1 540 540)" id="2ef706f8-e6f9-4bfa-9ff4-39baf5ea08d5"  >
<rect style="stroke: none; stroke-width: 1; stroke-dasharray: none; stroke-linecap: butt; stroke-dashoffset: 0; stroke-linejoin: miter; stroke-miterlimit: 4; fill: rgb(253,253,253); fill-rule: nonzero; opacity: 1; visibility: hidden;" vector-effect="non-scaling-stroke"  x="-540" y="-540" rx="0" ry="0" width="1080" height="1080" />
</g>
<g transform="matrix(21.39 0 0 21.39 540 540)"  >
<path style="stroke: rgb(0,0,0); stroke-width: 0; stroke-dasharray: none; stroke-linecap: butt; stroke-dashoffset: 0; stroke-linejoin: miter; stroke-miterlimit: 4; fill: rgb(255,255,255); fill-rule: nonzero; opacity: 1;" vector-effect="non-scaling-stroke"  transform=" translate(-24, -24)" d="M 24 4 C 12.972 4 4 12.972 4 24 C 4 35.028 12.972 44 24 44 C 35.028 44 44 35.028 44 24 C 44 12.972 35.028 4 24 4 z M 24 7 C 33.374 7 41 14.626 41 24 C 41 29.852 38.027672 35.020078 33.513672 38.080078 L 19.742188 17.660156 C 19.375187 17.113156 18.687547 16.874453 18.060547 17.064453 C 17.430547 17.258453 17 17.841 17 18.5 L 17 31.5 C 17 32.328 17.672 33 18.5 33 C 19.328 33 20 32.328 20 31.5 L 20 23.40625 L 30.876953 39.533203 C 28.770953 40.468203 26.448 41 24 41 C 14.626 41 7 33.374 7 24 C 7 14.626 14.626 7 24 7 z M 29.5 15 C 28.672 15 28 15.672 28 16.5 L 28 24.986328 L 31 29.289062 L 31 16.5 C 31 15.672 30.328 15 29.5 15 z" stroke-linecap="round" />
</g>
<g transform="matrix(0.91 0 0 0.89 488.76 378.87)" id="2533a496-9f8c-409f-87df-cc03a83006af"  >
<circle style="stroke: rgb(0,0,0); stroke-width: 0; stroke-dasharray: none; stroke-linecap: butt; stroke-dashoffset: 0; stroke-linejoin: miter; stroke-miterlimit: 4; fill: rgb(255,255,255); fill-rule: nonzero; opacity: 1;" vector-effect="non-scaling-stroke"  cx="0" cy="0" r="35" />
</g>
<g transform="matrix(2.31 0 0 0.85 570.15 378.89)" id="d503ac68-055e-4520-b51d-18d4380f52f7"  >
<rect style="stroke: rgb(0,0,0); stroke-width: 0; stroke-dasharray: none; stroke-linecap: butt; stroke-dashoffset: 0; stroke-linejoin: miter; stroke-miterlimit: 4; fill: rgb(255,255,255); fill-rule: nonzero; opacity: 1;" vector-effect="non-scaling-stroke"  x="-37.165" y="-37.165" rx="0" ry="0" width="74.33" height="74.33" />
</g>
</svg>